# xmcd CD database file
#
# Track frame offsets:
#	150
#	15132
#	29795
#	42777
#	57155
#	71555
#	86427
#	101712
#	120822
#	131112
#	145827
#	157984
#	170239
#	186889
#	208624
#	222432
#	237334
#	253797
#	264867
#	278997
#	291889
#	307662
#	323554
#	338434
#
# Disc length: 4676 seconds
#
# Revision: 0
# Processed by: cddbd v1.5.2PL0 Copyright (c) Steve Scherf et al.
# Submitted via: ACXtractor (MTCDDB.DLL V2003.12.21)
#
DISCID=53124218
DTITLE=Brian Young and Alan Christiansen - Ringo the dingo
DYEAR=1994
DGENRE=Country
TTITLE0=Thistles on the Hillside
TTITLE1=Twenty Years Ago
TTITLE2=Proud to be a Aussie
TTITLE3=Too Late for Crying
TTITLE4=The Fan
TTITLE5=Anungu Itjantjat araku Anta
TTITLE6=Land of the Flying Jabiru
TTITLE7=Broken Hearts
TTITLE8=Slim Why don't you Sing a Song of Mine
TTITLE9=The Western Plains of Dixen
TTITLE10=Tjilpi
TTITLE11=Hello Mary Lou
TTITLE12=My Lips Would Tell a Lie
TTITLE13=Ringo the Dingo
TTITLE14=Heartaches by the Number
TTITLE15=Don't let Your Sweet Love Die
TTITLE16=From Now on all My Friends
TTITLE17=Sing Like country Music
TTITLE18=Say It again
TTITLE19=Blackboard of my Heart
TTITLE20=May I Sleep in Your Barn Tonight Mr.
TTITLE21=Over the Hill
TTITLE22=Sweet Annie Johnstone
TTITLE23=Leave Him in the Longyard
EXTD=ID3G:   2 YEAR: 1994
EXTT0=
EXTT1=
EXTT2=
EXTT3=
EXTT4=
EXTT5=
EXTT6=
EXTT7=
EXTT8=
EXTT9=
EXTT10=
EXTT11=
EXTT12=
EXTT13=
EXTT14=
EXTT15=
EXTT16=
EXTT17=
EXTT18=
EXTT19=
EXTT20=
EXTT21=
EXTT22=
EXTT23=
PLAYORDER=
